<?xml version="1.0" encoding="utf-8"?>
<svg width="200" height="200" viewBox="0 0 200 200" xmlns="http://www.w3.org/2000/svg" xmlns:xlink="http://www.w3.org/1999/xlink">
    <svg xmlns="http://www.w3.org/2000/svg" fill-rule="evenodd" clip-rule="evenodd" width="24" height="24" viewBox="-1 -1 24 24" x="1" y="1">
        <path stroke-width="1" stroke="#393d46" d="M15.853 16.56c-1.683 1.517-3.911 2.44-6.353 2.44-5.243 0-9.5-4.257-9.5-9.5s4.257-9.5 9.5-9.5 9.5 4.257 9.5 9.5c0 2.442-.923 4.67-2.44 6.353l7.44 7.44-.707.707-7.44-7.44zm-6.353-15.56c4.691 0 8.5 3.809 8.5 8.5s-3.809 8.5-8.5 8.5-8.5-3.809-8.5-8.5 3.809-8.5 8.5-8.5z" fill="#393d46"/>
    </svg>
    <svg xmlns="http://www.w3.org/2000/svg" x="30" y="0" width="24" height="24" viewBox="0 0 24 24">
        <path d="M24 3l-.743 2h-1.929l-3.474 12h-13.239l-4.615-11h16.812l-.564 2h-13.24l2.937 7h10.428l3.432-12h4.195zm-15.5 15c-.828 0-1.5.672-1.5 1.5 0 .829.672 1.5 1.5 1.5s1.5-.671 1.5-1.5c0-.828-.672-1.5-1.5-1.5zm6.9-7-1.9 7c-.828 0-1.5.671-1.5 1.5s.672 1.5 1.5 1.5 1.5-.671 1.5-1.5c0-.828-.672-1.5-1.5-1.5z" fill="#393d46"/>
    </svg>
    <svg xmlns="http://www.w3.org/2000/svg" width="24" height="24" viewBox="0 0 24 24" x="60" y="0">
        <path d="M9 8h-3v4h3v12h5v-12h3.642l.358-4h-4v-1.667c0-.955.192-1.333 1.115-1.333h2.885v-5h-3.808c-3.596 0-5.192 1.583-5.192 4.615v3.385z" fill="#393d46"/>
    </svg>
    <svg xmlns="http://www.w3.org/2000/svg" width="24" height="24" viewBox="0 0 24 24" x="90" y="0">
        <path d="M24 4.557c-.883.392-1.832.656-2.828.775 1.017-.609 1.798-1.574 2.165-2.724-.951.564-2.005.974-3.127 1.195-.897-.957-2.178-1.555-3.594-1.555-3.179 0-5.515 2.966-4.797 6.045-4.091-.205-7.719-2.165-10.148-5.144-1.29 2.213-.669 5.108 1.523 6.574-.806-.026-1.566-.247-2.229-.616-.054 2.281 1.581 4.415 3.949 4.89-.693.188-1.452.232-2.224.084.626 1.956 2.444 3.379 4.6 3.419-2.07 1.623-4.678 2.348-7.29 2.04 2.179 1.397 4.768 2.212 7.548 2.212 9.142 0 14.307-7.721 13.995-14.646.962-.695 1.797-1.562 2.457-2.549z" fill="#393d46"/>
    </svg>
    <svg xmlns="http://www.w3.org/2000/svg" width="24" height="24" viewBox="0 0 24 24" x="0" y="30">
        <path d="M12 2.163c3.204 0 3.584.012 4.85.07 3.252.148 4.771 1.691 4.919 4.919.058 1.265.069 1.645.069 4.849 0 3.205-.012 3.584-.069 4.849-.149 3.225-1.664 4.771-4.919 4.919-1.266.058-1.644.07-4.85.07-3.204 0-3.584-.012-4.849-.07-3.26-.149-4.771-1.699-4.919-4.92-.058-1.265-.07-1.644-.07-4.849 0-3.204.013-3.583.07-4.849.149-3.227 1.664-4.771 4.919-4.919 1.266-.057 1.645-.069 4.849-.069zm0-2.163c-3.259 0-3.667.014-4.947.072-4.358.2-6.78 2.618-6.98 6.98-.059 1.281-.073 1.689-.073 4.948 0 3.259.014 3.668.072 4.948.2 4.358 2.618 6.78 6.98 6.98 1.281.058 1.689.072 4.948.072 3.259 0 3.668-.014 4.948-.072 4.354-.2 6.782-2.618 6.979-6.98.059-1.28.073-1.689.073-4.948 0-3.259-.014-3.667-.072-4.947-.196-4.354-2.617-6.78-6.979-6.98-1.281-.059-1.69-.073-4.949-.073zm0 5.838c-3.403 0-6.162 2.759-6.162 6.162s2.759 6.163 6.162 6.163 6.162-2.759 6.162-6.163c0-3.403-2.759-6.162-6.162-6.162zm0 10.162c-2.209 0-4-1.79-4-4 0-2.209 1.791-4 4-4s4 1.791 4 4c0 2.21-1.791 4-4 4zm6.406-11.845c-.796 0-1.441.645-1.441 1.44s.645 1.44 1.441 1.44c.795 0 1.439-.645 1.439-1.44s-.644-1.44-1.439-1.44z" fill="#393d46"/>
    </svg>
    <svg xmlns="http://www.w3.org/2000/svg" width="24" height="24" viewBox="0 0 24 24" x="30" y="30">
        <path d="M4.98 3.5c0 1.381-1.11 2.5-2.48 2.5s-2.48-1.119-2.48-2.5c0-1.38 1.11-2.5 2.48-2.5s2.48 1.12 2.48 2.5zm.02 4.5h-5v16h5v-16zm7.982 0h-4.968v16h4.969v-8.399c0-4.67 6.029-5.052 6.029 0v8.399h4.988v-10.131c0-7.88-8.922-7.593-11.018-3.714v-2.155z" fill="#393d46"/>
    </svg>
    <svg width="24" height="24" xmlns="http://www.w3.org/2000/svg" fill-rule="evenodd" clip-rule="evenodd" x="60" y="30">
        <path stroke-width="1" stroke="#393d46" d="M16.272 5.451c-.176-.45-.272-.939-.272-1.451 0-2.208 1.792-4 4-4s4 1.792 4 4-1.792 4-4 4c-1.339 0-2.525-.659-3.251-1.67l-7.131 3.751c.246.591.382 1.239.382 1.919 0 .681-.136 1.33-.384 1.922l7.131 3.751c.726-1.013 1.913-1.673 3.253-1.673 2.208 0 4 1.792 4 4s-1.792 4-4 4-4-1.792-4-4c0-.51.096-.999.27-1.447l-7.129-3.751c-.9 1.326-2.419 2.198-4.141 2.198-2.76 0-5-2.24-5-5s2.24-5 5-5c1.723 0 3.243.873 4.143 2.201l7.129-3.75zm3.728 11.549c1.656 0 3 1.344 3 3s-1.344 3-3 3-3-1.344-3-3 1.344-3 3-3zm-15-9c2.208 0 4 1.792 4 4s-1.792 4-4 4-4-1.792-4-4 1.792-4 4-4zm15-7c1.656 0 3 1.344 3 3s-1.344 3-3 3-3-1.344-3-3 1.344-3 3-3z" fill="#393d46"/>
    </svg>
    <svg xmlns="http://www.w3.org/2000/svg" width="24" height="24" viewBox="0 0 24 24" x="90" y="30">
        <path d="M24 20.188l-8.315-8.209 8.2-8.282-3.697-3.697-8.212 8.318-8.31-8.203-3.666 3.666 8.321 8.24-8.206 8.313 3.666 3.666 8.237-8.318 8.285 8.203z" fill="#393d46"/>
    </svg>
    <svg xmlns="http://www.w3.org/2000/svg" width="24" height="24" viewBox="0 0 47 35" x="0" y="60">
        <path fill="#393d46" d="M43.007,9.225H5.943c-1.859,0-3.37,1.512-3.37,3.371v22.039c0,1.859,1.511,3.371,3.37,3.371h37.064   c1.858,0,3.369-1.512,3.369-3.371V12.596C46.376,10.737,44.865,9.225,43.007,9.225z M5.943,11.473h37.064   c0.621,0,1.124,0.501,1.124,1.123v3.781H4.819v-3.781C4.819,11.976,5.321,11.473,5.943,11.473z M43.007,35.758H5.943   c-0.622,0-1.124-0.5-1.124-1.123V18.623h39.312v16.012C44.131,35.258,43.628,35.758,43.007,35.758z"></path>
        <circle fill="#393d46" cx="7.909" cy="13.989" r="1.203"></circle>
        <circle fill="#393d46" cx="11.278" cy="13.989" r="1.203"></circle>
        <circle fill="#393d46" cx="14.647" cy="13.989" r="1.203"></circle>
        <path fill="#393d46" d="M24.533,21.12c-1.811,0-3.276,1.386-3.276,3.098v5.507c0,1.709,1.469,3.094,3.276,3.094   s3.274-1.385,3.274-3.094v-5.507C27.812,22.506,26.345,21.12,24.533,21.12z M25.566,29.725c0,0.459-0.475,0.848-1.033,0.848   c-0.556,0-1.026-0.389-1.026-0.848v-5.507c0-0.469,0.459-0.852,1.026-0.852c0.567,0,1.033,0.383,1.033,0.852V29.725z"></path>
        <path fill="#393d46" d="M19.327,26.08h-2.513l1.439-3.401c0.245-0.57-0.023-1.229-0.594-1.472   c-0.564-0.241-1.229,0.023-1.474,0.594l-2.106,4.961l0,0c-0.015,0.034-0.013,0.079-0.026,0.116   c-0.075,0.256-0.073,0.518,0.023,0.748c0.027,0.066,0.077,0.119,0.116,0.176c0.039,0.062,0.071,0.131,0.123,0.184   c0.094,0.096,0.212,0.176,0.337,0.232c0.009,0.006,0.013,0.012,0.022,0.014l0,0c0.135,0.057,0.283,0.092,0.438,0.092H18.2v3.463   c0,0.619,0.503,1.123,1.125,1.123c0.619,0,1.123-0.504,1.123-1.123v-4.586C20.449,26.583,19.945,26.08,19.327,26.08z"></path>
        <path fill="#393d46" d="M33.833,26.08h-2.517l1.444-3.401c0.243-0.57-0.023-1.229-0.596-1.472   c-0.564-0.241-1.229,0.023-1.474,0.594l-2.105,4.961l0,0c-0.016,0.034-0.013,0.079-0.024,0.116   c-0.076,0.256-0.074,0.518,0.022,0.748c0.026,0.066,0.076,0.119,0.113,0.176c0.04,0.062,0.072,0.131,0.123,0.184   c0.098,0.096,0.216,0.176,0.341,0.232c0.009,0.006,0.013,0.012,0.021,0.014l0,0c0.136,0.057,0.28,0.092,0.439,0.092h3.089v3.463   c0,0.619,0.501,1.123,1.122,1.123c0.622,0,1.123-0.504,1.123-1.123v-4.586C34.956,26.583,34.455,26.08,33.833,26.08z"></path>
    </svg>
    <svg xmlns="http://www.w3.org/2000/svg" fill-rule="evenodd" clip-rule="evenodd" width="24" height="24" viewBox="0 0 24 24" x="30" y="60">
        <path d="M13.403 24h-13.403v-22h3c1.231 0 2.181-1.084 3-2h8c.821.916 1.772 2 3 2h3v9.15c-.485-.098-.987-.15-1.5-.15l-.5.016v-7.016h-4l-2 2h-3.897l-2.103-2h-4v18h9.866c.397.751.919 1.427 1.537 2zm5.097-11c3.035 0 5.5 2.464 5.5 5.5s-2.465 5.5-5.5 5.5c-3.036 0-5.5-2.464-5.5-5.5s2.464-5.5 5.5-5.5zm0 2c1.931 0 3.5 1.568 3.5 3.5s-1.569 3.5-3.5 3.5c-1.932 0-3.5-1.568-3.5-3.5s1.568-3.5 3.5-3.5zm2.5 4h-3v-3h1v2h2v1zm-15.151-4.052l-1.049-.984-.8.823 1.864 1.776 3.136-3.192-.815-.808-2.336 2.385zm6.151 1.052h-2v-1h2v1zm2-2h-4v-1h4v1zm-8.151-4.025l-1.049-.983-.8.823 1.864 1.776 3.136-3.192-.815-.808-2.336 2.384zm8.151 1.025h-4v-1h4v1zm0-2h-4v-1h4v1zm-5-6c0 .552.449 1 1 1 .553 0 1-.448 1-1s-.447-1-1-1c-.551 0-1.448-1 1z" fill="#393d46"/>
    </svg>
    <svg xmlns="http://www.w3.org/2000/svg" fill-rule="evenodd" clip-rule="evenodd" width="24" height="24" viewBox="0 0 24 24" x="60" y="60">
        <path d="M13.403 24h-13.403v-22h3c1.231 0 2.181-1.084 3-2h8c.821.916 1.772 2 3 2h3v9.15c-.485-.098-.987-.15-1.5-.15l-.5.016v-7.016h-4l-2 2h-3.897l-2.103-2h-4v18h9.866c.397.751.919 1.427 1.537 2zm5.097-11c3.035 0 5.5 2.464 5.5 5.5s-2.465 5.5-5.5 5.5c-3.036 0-5.5-2.464-5.5-5.5s2.464-5.5 5.5-5.5zm0 2c1.931 0 3.5 1.568 3.5 3.5s-1.569 3.5-3.5 3.5c-1.932 0-3.5-1.568-3.5-3.5s1.568-3.5 3.5-3.5zm2.5 4h-3v-3h1v2h2v1zm-15.151-4.052l-1.049-.984-.8.823 1.864 1.776 3.136-3.192-.815-.808-2.336 2.385zm6.151 1.052h-2v-1h2v1zm2-2h-4v-1h4v1zm-8.151-4.025l-1.049-.983-.8.823 1.864 1.776 3.136-3.192-.815-.808-2.336 2.384zm8.151 1.025h-4v-1h4v1zm0-2h-4v-1h4v1zm-5-6c0 .552.449 1 1 1 .553 0 1-.448 1-1s-.447-1-1-1c-.551 0-1.448-1 1z" fill="#ffffff"/>
    </svg>
    <svg xmlns="http://www.w3.org/2000/svg" fill-rule="evenodd" clip-rule="evenodd" width="24" height="24" viewBox="0 0 24 24" x="90" y="60">
        <path d="M5 11v1h8v-7h-10v-1c0-.552.448-1 1-1h10c.552 0 1 .448 1 1v2h4.667c1.117 0 1.6.576 1.936 1.107.594.94 1.536 2.432 2.109 3.378.188.312.288.67.288 1.035v4.48c0 1.089-.743 2-2 2h-1c0 1.656-1.344 3-3 3s-3-1.344-3-3h-4c0 1.656-1.344 3-3 3s-3-1.344-3-3h-1c-.552 0-1-.448-1-1v-6h-2v-2h7v2h-3zm3 5.8c.662 0 1.2.538 1.2 1.2 0 .662-.538 1.2-1.2 1.2-.662 0-1.2-.538-1.2-1.2 0-.662.538-1.2 1.2-1.2zm10 0c.662 0 1.2.538 1.2 1.2 0 .662-.538 1.2-1.2 1.2-.662 0-1.2-.538-1.2-1.2 0-.662.538-1.2 1.2-1.2zm-3-2.8h-10v2h.765c.549-.614 1.347-1 2.235-1 .888 0 1.686.386 2.235 1h5.53c.549-.614 1.347-1 2.235-1 .888 0 1.686.386 2.235 1h1.765v-4.575l-1.711-2.929c-.179-.307-.508-.496-.863-.496h-4.426v6zm1-5v3h5l-1.427-2.496c-.178-.312-.509-.504-.868-.504h-2.705zm-16-3h8v2h-8v-2z" fill="#393d46"/>
    </svg>
    <svg xmlns="http://www.w3.org/2000/svg" fill-rule="evenodd" clip-rule="evenodd" width="24" height="24" viewBox="0 0 24 24" x="0" y="90">
        <path d="M5 11v1h8v-7h-10v-1c0-.552.448-1 1-1h10c.552 0 1 .448 1 1v2h4.667c1.117 0 1.6.576 1.936 1.107.594.94 1.536 2.432 2.109 3.378.188.312.288.67.288 1.035v4.48c0 1.089-.743 2-2 2h-1c0 1.656-1.344 3-3 3s-3-1.344-3-3h-4c0 1.656-1.344 3-3 3s-3-1.344-3-3h-1c-.552 0-1-.448-1-1v-6h-2v-2h7v2h-3zm3 5.8c.662 0 1.2.538 1.2 1.2 0 .662-.538 1.2-1.2 1.2-.662 0-1.2-.538-1.2-1.2 0-.662.538-1.2 1.2-1.2zm10 0c.662 0 1.2.538 1.2 1.2 0 .662-.538 1.2-1.2 1.2-.662 0-1.2-.538-1.2-1.2 0-.662.538-1.2 1.2-1.2zm-3-2.8h-10v2h.765c.549-.614 1.347-1 2.235-1 .888 0 1.686.386 2.235 1h5.53c.549-.614 1.347-1 2.235-1 .888 0 1.686.386 2.235 1h1.765v-4.575l-1.711-2.929c-.179-.307-.508-.496-.863-.496h-4.426v6zm1-5v3h5l-1.427-2.496c-.178-.312-.509-.504-.868-.504h-2.705zm-16-3h8v2h-8v-2z" fill="#ffffff"/>
    </svg>
    <svg xmlns="http://www.w3.org/2000/svg" width="24" height="24" viewBox="0 0 24 24" x="30" y="90">
        <path d="M13.904 9c-3.514-3.984-.1-7.598-.1-7.598l-1.393-1.389 5.589-.013v5.607l-1.372-1.391c0 .001-3.581.706-2.724 4.784zm5.752 6.024l-.35.199v1.717l.35-.199v-1.717zm.844-.481l-.342.195v1.717l.342-.195v-1.717zm-3.407 1.941l-.349.199v1.713l.349-.195v-1.717zm1.979-1.127l-.343.195v1.717l.343-.195v-1.717zm.949-10.673v2.295l.855.489-6.859 3.698-8.86-5.138 6.374-3.654-1.5-1.406-6.864 3.97-3.167 5.533 2 1.106v5.445l12.25 6.978 9.75-5.551v-11.508l-3.979-2.257zm-16.083 3.004l7.897 4.54-1.193 2.091-7.871-4.605 1.167-2.026zm9.062 13.298l-9-5.126v-3.112l5.632 3.297 1.746 1.022 1.002-1.757.62-1.088v6.764zm9-3.7l-7 3.985v-8.361l7-3.773v8.149zm-4.323-1.135l-.343.195v1.717l.343-.195v-1.717zm.821-.467l-.344.196v1.717l.344-.196v-1.717z" fill="#393d46"/>
    </svg>
    <svg xmlns="http://www.w3.org/2000/svg" width="24" height="24" viewBox="0 0 24 24" x="60" y="90">
        <path fill="#ffffff" d="M13.904 9c-3.514-3.984-.1-7.598-.1-7.598l-1.393-1.389 5.589-.013v5.607l-1.372-1.391c0 .001-3.581.706-2.724 4.784zm5.752 6.024l-.35.199v1.717l.35-.199v-1.717zm.844-.481l-.342.195v1.717l.342-.195v-1.717zm-3.407 1.941l-.349.199v1.713l.349-.195v-1.717zm1.979-1.127l-.343.195v1.717l.343-.195v-1.717zm.949-10.673v2.295l.855.489-6.859 3.698-8.86-5.138 6.374-3.654-1.5-1.406-6.864 3.97-3.167 5.533 2 1.106v5.445l12.25 6.978 9.75-5.551v-11.508l-3.979-2.257zm-16.083 3.004l7.897 4.54-1.193 2.091-7.871-4.605 1.167-2.026zm9.062 13.298l-9-5.126v-3.112l5.632 3.297 1.746 1.022 1.002-1.757.62-1.088v6.764zm9-3.7l-7 3.985v-8.361l7-3.773v8.149zm-4.323-1.135l-.343.195v1.717l.343-.195v-1.717zm.821-.467l-.344.196v1.717l.344-.196v-1.717z"/>
    </svg>
    <svg xmlns="http://www.w3.org/2000/svg" width="24" height="24" viewBox="0 0 24 24" x="90" y="90">
        <path d="M20 7.093v-5.093h-3v2.093l3 3zm4 5.907l-12-12-12 12h3v10h7v-5h4v5h7v-10h3zm-5 8h-3v-5h-8v5h-3v-10.26l7-6.912 7 6.99v10.182z" fill="#393d46"/>
    </svg>
    <svg xmlns="http://www.w3.org/2000/svg" width="24" height="24" viewBox="0 0 24 24" x="0" y="120">
        <path d="M20 7.093v-5.093h-3v2.093l3 3zm4 5.907l-12-12-12 12h3v10h7v-5h4v5h7v-10h3zm-5 8h-3v-5h-8v5h-3v-10.26l7-6.912 7 6.99v10.182z" fill="#ffffff"/>
    </svg>
    <svg xmlns="http://www.w3.org/2000/svg" width="24" height="24" viewBox="0 0 24 24" x="30" y="120"><path d="M9 19c0 .552-.448 1-1 1s-1-.448-1-1v-10c0-.552.448-1 1-1s1 .448 1 1v10zm4 0c0 .552-.448 1-1 1s-1-.448-1-1v-10c0-.552.448-1 1-1s1 .448 1 1v10zm4 0c0 .552-.448 1-1 1s-1-.448-1-1v-10c0-.552.448-1 1-1s1 .448 1 1v10zm5-17v2h-20v-2h5.711c.9 0 1.631-1.099 1.631-2h5.315c0 .901.73 2 1.631 2h5.712zm-3 4v16h-14v-16h-2v18h18v-18h-2z" fill="red"/></svg>
    <svg xmlns="http://www.w3.org/2000/svg" width="24" height="24" viewBox="0 0 24 24" x="60" y="120"><path d="M18.363 8.464l1.433 1.431-12.67 12.669-7.125 1.436 1.439-7.127 12.665-12.668 1.431 1.431-12.255 12.224-.726 3.584 3.584-.723 12.224-12.257zm-.056-8.464l-2.815 2.817 5.691 5.692 2.817-2.821-5.693-5.688zm-12.318 18.718l11.313-11.316-.705-.707-11.313 11.314.705.709z" fill="#393d46"/></svg>
    <svg xmlns="http://www.w3.org/2000/svg" width="24" height="24" viewBox="0 0 24 24" x="90" y="120"><path d="M12.015 7c4.751 0 8.063 3.012 9.504 4.636-1.401 1.837-4.713 5.364-9.504 5.364-4.42 0-7.93-3.536-9.478-5.407 1.493-1.647 4.817-4.593 9.478-4.593zm0-2c-7.569 0-12.015 6.551-12.015 6.551s4.835 7.449 12.015 7.449c7.733 0 11.985-7.449 11.985-7.449s-4.291-6.551-11.985-6.551zm-.015 3c-2.21 0-4 1.791-4 4s1.79 4 4 4c2.209 0 4-1.791 4-4s-1.791-4-4-4zm-.004 3.999c-.564.564-1.479.564-2.044 0s-.565-1.48 0-2.044c.564-.564 1.479-.564 2.044 0s.565 1.479 0 2.044z" /></svg>
    <svg xmlns="http://www.w3.org/2000/svg" width="24" height="24" viewBox="0 0 24 24" x="0" y="150"><path d="M12 2c5.514 0 10 4.486 10 10s-4.486 10-10 10-10-4.486-10-10 4.486-10 10-10zm0-2c-6.627 0-12 5.373-12 12s5.373 12 12 12 12-5.373 12-12-5.373-12-12-12zm-1.959 17l-4.5-4.319 1.395-1.435 3.08 2.937 7.021-7.183 1.422 1.409-8.418 8.591z" fill="green"/></svg>
    <svg xmlns="http://www.w3.org/2000/svg" width="24" height="24" viewBox="0 0 24 24" x="30" y="150"><path d="M12 2c5.514 0 10 4.486 10 10s-4.486 10-10 10-10-4.486-10-10 4.486-10 10-10zm0-2c-6.627 0-12 5.373-12 12s5.373 12 12 12 12-5.373 12-12-5.373-12-12-12zm6 16.538l-4.592-4.548 4.546-4.587-1.416-1.403-4.545 4.589-4.588-4.543-1.405 1.405 4.593 4.552-4.547 4.592 1.405 1.405 4.555-4.596 4.591 4.55 1.403-1.416z" fill="red"/></svg>
    <svg xmlns="http://www.w3.org/2000/svg" width="24" height="24" viewBox="0 0 24 24" x="60" y="150"><path d="M7.441 7h-2.882l4.701-4.702c.198-.198.459-.298.72-.298.613 0 1.02.505 1.02 1.029 0 .25-.092.504-.299.711l-3.26 3.26zm9.118 0h2.883l-4.702-4.702c-.198-.198-.459-.298-.72-.298-.613 0-1.02.505-1.02 1.029 0 .25.092.504.299.711l3.26 3.26zm-16.559 2v2h.643c.577 0 1.061.299 1.343 1h20.03c.28-.699.766-1 1.343-1h.641v-2h-24zm21.213 5h-18.425l1.204 3h16.016l1.205-3zm-16.417 5l1.204 3h12l1.205-3h-14.409z" fill="#393d46"/></svg>
    <svg xmlns="http://www.w3.org/2000/svg" width="24" height="24" viewBox="0 0 24 24" x="90" y="150"><path d="M12 2c5.514 0 10 4.486 10 10s-4.486 10-10 10-10-4.486-10-10 4.486-10 10-10zm0-2c-6.627 0-12 5.373-12 12s5.373 12 12 12 12-5.373 12-12-5.373-12-12-12zm5.848 12.459c.202.038.202.333.001.372-1.907.361-6.045 1.111-6.547 1.111-.719 0-1.301-.582-1.301-1.301 0-.512.77-5.447 1.125-7.445.034-.192.312-.181.343.014l.985 6.238 5.394 1.011z"/></svg>
    <svg xmlns="http://www.w3.org/2000/svg" width="24" height="24" viewBox="0 0 24 29" x="0" y="180"><path d="M12 2c5.514 0 10 4.486 10 10s-4.486 10-10 10-10-4.486-10-10 4.486-10 10-10zm0-2c-6.627 0-12 5.373-12 12s5.373 12 12 12 12-5.373 12-12-5.373-12-12-12zm5.848 12.459c.202.038.202.333.001.372-1.907.361-6.045 1.111-6.547 1.111-.719 0-1.301-.582-1.301-1.301 0-.512.77-5.447 1.125-7.445.034-.192.312-.181.343.014l.985 6.238 5.394 1.011z" fill="#ffffff"/></svg>
    <svg xmlns="http://www.w3.org/2000/svg" width="24" height="24" viewBox="0 0 24 29" x="30" y="180"><path d="M12 2c5.514 0 10 4.486 10 10s-4.486 10-10 10-10-4.486-10-10 4.486-10 10-10zm0-2c-6.627 0-12 5.373-12 12s5.373 12 12 12 12-5.373 12-12-5.373-12-12-12zm-1.31 7.526c-.099-.807.528-1.526 1.348-1.526.771 0 1.377.676 1.28 1.451l-.757 6.053c-.035.283-.276.496-.561.496s-.526-.213-.562-.496l-.748-5.978zm1.31 10.724c-.69 0-1.25-.56-1.25-1.25s.56-1.25 1.25-1.25 1.25.56 1.25 1.25-.56 1.25-1.25 1.25z" fill="red"/></svg>
    <svg xmlns="http://www.w3.org/2000/svg" width="24" height="24" viewBox="0 0 24 29" x="60" y="180"><path d="M15 21c0 1.598-1.392 3-2.971 3s-3.029-1.402-3.029-3h6zm.137-17.055c-.644-.374-1.042-1.07-1.041-1.82v-.003c.001-1.172-.938-2.122-2.096-2.122s-2.097.95-2.097 2.122v.003c.001.751-.396 1.446-1.041 1.82-4.668 2.709-1.985 11.715-6.862 13.306v1.749h20v-1.749c-4.877-1.591-2.193-10.598-6.863-13.306zm-3.137-2.945c.552 0 1 .449 1 1 0 .552-.448 1-1 1s-1-.448-1-1c0-.551.448-1 1-1zm-6.451 16c1.189-1.667 1.605-3.891 1.964-5.815.447-2.39.869-4.648 2.354-5.509 1.38-.801 2.956-.76 4.267 0 1.485.861 1.907 3.119 2.354 5.509.359 1.924.775 4.148 1.964 5.815h-12.903z" fill="#393d46"/></svg>
    <svg xmlns="http://www.w3.org/2000/svg" width="24" height="24" viewBox="0 0 24 29" x="90" y="180"><path d="M12 2c5.514 0 10 4.486 10 10s-4.486 10-10 10-10-4.486-10-10 4.486-10 10-10zm0-2c-6.627 0-12 5.373-12 12s5.373 12 12 12 12-5.373 12-12-5.373-12-12-12zm-.001 5.75c.69 0 1.251.56 1.251 1.25s-.561 1.25-1.251 1.25-1.249-.56-1.249-1.25.559-1.25 1.249-1.25zm2.001 12.25h-4v-1c.484-.179 1-.201 1-.735v-4.467c0-.534-.516-.618-1-.797v-1h3v6.265c0 .535.517.558 1 .735v.999z" fill="#393d46"/></svg>
</svg>